<svg xmlns="http://www.w3.org/2000/svg" width="60" height="24" viewBox="0 0 60 24">
  <path fill="#ffffff" d="M27.7 12c0-.8-.1-1.6-.3-2.3h-8.9v4.4h5.1c-.2 1.1-.9 2.1-1.8 2.7v2.3h2.9c1.7-1.6 2.7-3.9 2.7-7.1z"/>
  <path fill="#ffffff" d="M18.5 18.5c2.4 0 4.5-.8 6-2.2l-2.9-2.3c-.8.5-1.8.9-3.1.9-2.4 0-4.4-1.6-5.1-3.8h-3v2.3c1.5 3 4.6 5.1 8.1 5.1z"/>
  <path fill="#ffffff" d="M13.4 11.1c-.2-.6-.3-1.2-.3-1.9 0-.7.1-1.3.3-1.9V5h-3C9.5 6.2 9 7.6 9 9.2s.5 3 1.4 4.2l3-2.3z"/>
  <path fill="#ffffff" d="M18.5 5.4c1.3 0 2.5.5 3.5 1.3l2.6-2.6C22.9 2.5 20.8 1.7 18.5 1.7c-3.5 0-6.6 2.1-8.1 5.1l3 2.3c.7-2.2 2.7-3.7 5.1-3.7z"/>
  <path fill="#ffffff" d="M36 12.7c0-.6-.5-1-1.1-1h-2.7v2h2.7c.6 0 1.1-.4 1.1-1z"/>
  <path fill="#ffffff" d="M41.5 9.8h-1.2v3.4h1.2c1.1 0 1.7-.7 1.7-1.7s-.6-1.7-1.7-1.7z"/>
  <path fill="#ffffff" d="M48 7.5h-4.3v9h1.7v-3.4h2.6c1.6 0 2.8-1.3 2.8-2.8s-1.2-2.8-2.8-2.8zm0 4.2h-2.6V9.1H48c.8 0 1.4.6 1.4 1.3 0 .7-.6 1.3-1.4 1.3z"/>
</svg> 